# xmcd
#
# Track frame offsets:
#	150
#	13626
#	23311
#	33003
#	43217
#	53878
#	66384
#	77820
#	89240
#
# Disc length: 1339 seconds
#
# Revision: 0
# Processed by: cddbd v1.5.2PL0 Copyright (c) Steve Scherf et al.
# Submitted via: EasyCDDAExtractor 16.0.1.1
#
DISCID=6d053909
DTITLE=Wanda Jackson - We'll Sing In The Sunshine
DYEAR=196
DGENRE=Country
TTITLE0=We'll Sing In The Sunshine
TTITLE1=Less Of Me
TTITLE2=He's Got The Whole World In His Hands
TTITLE3=Yakety-Yak
TTITLE4=I Started Loving You Again
TTITLE5=I'm A Believer
TTITLE6=Walk Right In
TTITLE7=I'd Do It All Over Again
TTITLE8=Walk On Out Of My Mind
EXTD=
EXTT0=
EXTT1=
EXTT2=
EXTT3=
EXTT4=
EXTT5=
EXTT6=
EXTT7=
EXTT8=
PLAYORDER=
